<svg width="5729" height="1039" viewBox="0 0 5729 1039" fill="none" xmlns="http://www.w3.org/2000/svg">
<path d="M239.838 731.459H81.2593V898.902H51.9567V540.376H263.723V566.478H81.2593V705.357H239.838V731.459ZM530.894 898.902L529.663 856.795C520.963 871.57 509.307 883.143 494.697 891.515C480.087 899.723 462.768 903.827 442.74 903.827C427.966 903.827 414.915 901.447 403.588 896.686C392.425 891.761 382.986 884.702 375.27 875.51C367.555 866.481 361.727 855.318 357.787 842.021C353.847 828.724 351.795 813.457 351.631 796.22V632.47H380.934V796.713C381.098 810.174 382.493 821.993 385.12 832.171C387.746 842.185 391.768 850.557 397.186 857.288C402.439 864.182 409.087 869.354 417.131 872.801C425.339 876.248 434.943 877.972 445.941 877.972C457.432 877.972 467.857 876.577 477.214 873.786C486.571 870.831 494.779 866.727 501.838 861.474C508.404 856.549 513.904 850.639 518.336 843.745C522.932 836.686 526.38 828.806 528.678 820.105V632.47H558.227V898.902H530.894ZM653.276 898.902V632.47H680.362L682.086 684.181C686.19 676.465 691.033 669.324 696.614 662.758C702.195 656.191 708.434 650.528 715.328 645.767C723.372 640.186 732.237 635.753 741.922 632.47C751.772 629.187 762.196 627.545 773.195 627.545C787.805 627.545 800.692 629.762 811.854 634.194C823.182 638.626 832.621 645.111 840.172 653.647C847.888 662.347 853.715 672.936 857.655 685.412C861.595 697.888 863.565 712.088 863.565 728.012V898.902H834.262V728.504C834.098 716.356 832.621 705.604 829.83 696.247C827.203 686.889 823.099 679.01 817.518 672.607C811.772 666.205 804.631 661.362 796.095 658.079C787.723 654.796 777.709 653.237 766.054 653.401C755.876 653.401 746.272 655.206 737.244 658.818C728.215 662.265 720.007 666.944 712.62 672.854C705.725 678.435 699.733 685.084 694.644 692.799C689.555 700.351 685.615 708.394 682.825 716.931V898.902H653.276ZM1064.25 878.711C1074.1 878.711 1083.46 877.315 1092.32 874.525C1101.35 871.57 1109.39 867.384 1116.45 861.966C1123.35 856.549 1128.93 850.065 1133.2 842.513C1137.47 834.798 1140.01 826.179 1140.83 816.658H1168.9C1168.08 829.134 1164.72 840.708 1158.81 851.378C1153.06 862.048 1145.43 871.241 1135.91 878.957C1126.39 886.837 1115.47 892.993 1103.16 897.425C1090.84 901.693 1077.88 903.827 1064.25 903.827C1044.88 903.827 1027.97 900.134 1013.53 892.746C999.079 885.359 987.013 875.427 977.328 862.951C967.643 850.803 960.42 836.768 955.659 820.844C950.898 804.756 948.436 788.094 948.272 770.857V760.515C948.436 743.443 950.898 726.862 955.659 710.775C960.42 694.687 967.643 680.487 977.328 668.175C986.849 655.863 998.833 646.014 1013.28 638.626C1027.73 631.239 1044.63 627.545 1064 627.545C1078.94 627.545 1092.65 629.926 1105.13 634.686C1117.77 639.283 1128.68 645.767 1137.88 654.139C1147.07 662.512 1154.37 672.525 1159.79 684.181C1165.21 695.836 1168.25 708.476 1168.9 722.102H1140.83C1140.17 712.088 1137.79 702.895 1133.69 694.523C1129.75 685.987 1124.42 678.599 1117.69 672.361C1110.79 666.287 1102.75 661.527 1093.55 658.079C1084.52 654.632 1074.68 652.908 1064 652.908C1048.57 652.908 1035.36 656.027 1024.36 662.265C1013.53 668.503 1004.66 676.629 997.766 686.643C990.871 696.985 985.782 708.559 982.499 721.363C979.38 734.168 977.82 747.218 977.82 760.515V770.857C977.82 784.319 979.38 797.533 982.499 810.502C985.782 823.307 990.871 834.716 997.766 844.729C1004.66 854.907 1013.53 863.115 1024.36 869.354C1035.36 875.592 1048.66 878.711 1064.25 878.711ZM1265.92 632.47H1389.53V872.555H1480.15V898.902H1265.92V872.555H1360.23V658.818H1265.92V632.47ZM1351.61 559.583C1351.61 556.464 1352.02 553.509 1352.84 550.718C1353.67 547.928 1355.06 545.465 1357.03 543.331C1358.84 541.361 1361.13 539.884 1363.93 538.899C1366.72 537.75 1370 537.175 1373.77 537.175C1377.55 537.175 1380.83 537.75 1383.62 538.899C1386.42 539.884 1388.63 541.361 1390.27 543.331C1392.24 545.301 1393.72 547.682 1394.71 550.472C1395.69 553.263 1396.18 556.3 1396.18 559.583C1396.18 565.493 1394.38 570.582 1390.77 574.85C1387.15 579.118 1381.49 581.252 1373.77 581.252C1365.9 581.252 1360.23 579.118 1356.78 574.85C1353.34 570.582 1351.61 565.493 1351.61 559.583ZM1546.88 761.746C1546.88 743.689 1549.59 726.534 1555.01 710.282C1560.43 694.03 1568.22 679.831 1578.4 667.683C1588.58 655.371 1600.97 645.603 1615.58 638.38C1630.19 631.157 1646.86 627.545 1665.57 627.545C1684.12 627.545 1700.7 631.157 1715.31 638.38C1730.08 645.603 1742.64 655.289 1752.99 667.436C1763 679.748 1770.71 694.03 1776.13 710.282C1781.55 726.534 1784.34 743.689 1784.5 761.746V769.872C1784.34 787.93 1781.55 805.085 1776.13 821.337C1770.88 837.424 1763.16 851.624 1752.99 863.936C1742.81 876.084 1730.41 885.77 1715.8 892.993C1701.19 900.216 1684.61 903.827 1666.06 903.827C1647.35 903.827 1630.6 900.298 1615.83 893.239C1601.05 886.016 1588.66 876.248 1578.65 863.936C1568.3 851.788 1560.43 837.588 1555.01 821.337C1549.59 805.085 1546.88 787.93 1546.88 769.872V761.746ZM1576.18 769.872C1576.18 783.99 1578.15 797.615 1582.09 810.748C1586.03 823.881 1591.78 835.454 1599.33 845.468C1606.88 855.646 1616.24 863.772 1627.4 869.846C1638.57 875.756 1651.45 878.711 1666.06 878.711C1680.51 878.711 1693.23 875.756 1704.23 869.846C1715.23 863.772 1724.59 855.646 1732.3 845.468C1739.69 835.29 1745.27 823.717 1749.05 810.748C1752.99 797.615 1755.04 783.99 1755.2 769.872V761.746C1755.04 747.793 1752.99 734.25 1749.05 721.117C1745.11 707.984 1739.44 696.411 1732.05 686.397C1724.34 676.219 1714.9 668.093 1703.74 662.019C1692.74 655.945 1680.02 652.908 1665.57 652.908C1650.96 652.908 1638.15 655.945 1627.16 662.019C1616.16 668.093 1606.88 676.219 1599.33 686.397C1591.78 696.411 1586.03 707.984 1582.09 721.117C1578.15 734.25 1576.18 747.793 1576.18 761.746V769.872ZM1864.78 898.902V632.47H1891.86L1893.59 684.181C1897.69 676.465 1902.54 669.324 1908.12 662.758C1913.7 656.191 1919.94 650.528 1926.83 645.767C1934.87 640.186 1943.74 635.753 1953.42 632.47C1963.27 629.187 1973.7 627.545 1984.7 627.545C1999.31 627.545 2012.19 629.762 2023.36 634.194C2034.68 638.626 2044.12 645.111 2051.67 653.647C2059.39 662.347 2065.22 672.936 2069.16 685.412C2073.1 697.888 2075.07 712.088 2075.07 728.012V898.902H2045.76V728.504C2045.6 716.356 2044.12 705.604 2041.33 696.247C2038.71 686.889 2034.6 679.01 2029.02 672.607C2023.27 666.205 2016.13 661.362 2007.6 658.079C1999.23 654.796 1989.21 653.237 1977.56 653.401C1967.38 653.401 1957.78 655.206 1948.75 658.818C1939.72 662.265 1931.51 666.944 1924.12 672.854C1917.23 678.435 1911.24 685.084 1906.15 692.799C1901.06 700.351 1897.12 708.394 1894.33 716.931V898.902H1864.78ZM2350.86 898.902C2349.05 892.993 2347.66 886.672 2346.67 879.942C2345.85 873.211 2345.28 866.399 2344.95 859.504C2339.86 866.234 2333.87 872.39 2326.97 877.972C2320.24 883.389 2312.85 887.986 2304.81 891.761C2296.6 895.701 2287.9 898.656 2278.71 900.626C2269.68 902.76 2260.24 903.827 2250.39 903.827C2238.08 903.827 2226.51 902.021 2215.67 898.41C2204.84 894.798 2195.48 889.709 2187.6 883.143C2179.72 876.577 2173.48 868.697 2168.88 859.504C2164.29 850.147 2161.99 839.723 2161.99 828.231C2161.99 812.964 2165.36 799.996 2172.09 789.325C2178.98 778.655 2188.17 769.872 2199.67 762.978C2210.99 756.411 2224.21 751.651 2239.31 748.696C2254.41 745.577 2270.25 743.935 2286.83 743.771H2344.7V713.73C2344.54 703.716 2342.57 694.933 2338.79 687.382C2335.02 679.666 2329.84 673.264 2323.28 668.175C2316.71 663.086 2308.91 659.228 2299.88 656.602C2291.02 653.811 2281.42 652.416 2271.07 652.416C2261.55 652.416 2252.44 653.647 2243.74 656.109C2235.04 658.572 2227.33 662.101 2220.6 666.698C2214.03 671.294 2208.61 676.958 2204.34 683.688C2200.24 690.255 2198.11 697.724 2197.94 706.096L2168.39 705.85C2168.88 694.523 2171.92 684.099 2177.5 674.577C2183.08 665.056 2190.55 656.766 2199.91 649.707C2209.27 642.812 2220.1 637.395 2232.41 633.455C2244.89 629.515 2258.19 627.545 2272.31 627.545C2286.42 627.545 2299.64 629.351 2311.95 632.963C2324.26 636.574 2335.02 641.91 2344.21 648.968C2353.24 656.356 2360.38 665.466 2365.63 676.301C2371.05 687.136 2373.84 699.776 2374 714.222V843.006C2374 852.035 2374.74 861.063 2376.22 870.092C2377.86 879.121 2379.83 887.739 2382.13 895.947L2382.38 898.902H2350.86ZM2253.59 877.479C2263.93 877.644 2273.78 876.494 2283.14 874.032C2292.5 871.406 2301.12 867.794 2309 863.197C2316.88 858.601 2323.85 853.102 2329.93 846.699C2336 840.297 2340.92 833.156 2344.7 825.276V766.671H2291.02C2276.41 766.835 2262.54 768.067 2249.41 770.365C2236.27 772.663 2225.03 776.767 2215.67 782.677C2208.12 787.438 2202.13 793.347 2197.7 800.406C2193.43 807.301 2191.29 815.673 2191.29 825.523C2191.29 833.567 2192.93 840.79 2196.22 847.192C2199.5 853.594 2203.93 859.011 2209.51 863.444C2215.1 868.04 2221.66 871.57 2229.21 874.032C2236.93 876.33 2245.06 877.479 2253.59 877.479ZM2306.53 527.326H2342.24L2285.6 592.826H2261.23L2306.53 527.326ZM2646.84 627.545C2654.06 627.545 2661.37 628.038 2668.75 629.023C2676.3 629.844 2682.62 631.075 2687.71 632.717L2683.77 661.28C2677.04 659.803 2670.23 658.654 2663.34 657.833C2656.44 657.012 2649.38 656.602 2642.16 656.602C2629.68 656.602 2617.95 658.079 2606.95 661.034C2596.11 663.825 2586.34 668.257 2577.64 674.331C2569.27 680.241 2561.97 687.71 2555.73 696.739C2549.65 705.604 2544.98 716.192 2541.69 728.504L2541.94 898.902H2511.65V632.47H2539.72L2541.45 673.592V685.412C2551.79 667.19 2565.91 652.99 2583.8 642.812C2601.69 632.47 2622.71 627.381 2646.84 627.545ZM2780.3 632.47H2903.91V872.555H2994.53V898.902H2780.3V872.555H2874.61V658.818H2780.3V632.47ZM2865.99 559.583C2865.99 556.464 2866.4 553.509 2867.22 550.718C2868.04 547.928 2869.44 545.465 2871.41 543.331C2873.21 541.361 2875.51 539.884 2878.3 538.899C2881.09 537.75 2884.38 537.175 2888.15 537.175C2891.93 537.175 2895.21 537.75 2898 538.899C2900.79 539.884 2903.01 541.361 2904.65 543.331C2906.62 545.301 2908.1 547.682 2909.08 550.472C2910.07 553.263 2910.56 556.3 2910.56 559.583C2910.56 565.493 2908.76 570.582 2905.14 574.85C2901.53 579.118 2895.87 581.252 2888.15 581.252C2880.27 581.252 2874.61 579.118 2871.16 574.85C2867.72 570.582 2865.99 565.493 2865.99 559.583ZM3061.26 761.746C3061.26 743.689 3063.97 726.534 3069.39 710.282C3074.8 694.03 3082.6 679.831 3092.78 667.683C3102.96 655.371 3115.35 645.603 3129.96 638.38C3144.57 631.157 3161.23 627.545 3179.95 627.545C3198.5 627.545 3215.08 631.157 3229.69 638.38C3244.46 645.603 3257.02 655.289 3267.36 667.436C3277.38 679.748 3285.09 694.03 3290.51 710.282C3295.93 726.534 3298.72 743.689 3298.88 761.746V769.872C3298.72 787.93 3295.93 805.085 3290.51 821.337C3285.26 837.424 3277.54 851.624 3267.36 863.936C3257.19 876.084 3244.79 885.77 3230.18 892.993C3215.57 900.216 3198.99 903.827 3180.44 903.827C3161.73 903.827 3144.98 900.298 3130.21 893.239C3115.43 886.016 3103.04 876.248 3093.03 863.936C3082.68 851.788 3074.8 837.588 3069.39 821.337C3063.97 805.085 3061.26 787.93 3061.26 769.872V761.746ZM3090.56 769.872C3090.56 783.99 3092.53 797.615 3096.47 810.748C3100.41 823.881 3106.16 835.454 3113.71 845.468C3121.26 855.646 3130.62 863.772 3141.78 869.846C3152.94 875.756 3165.83 878.711 3180.44 878.711C3194.89 878.711 3207.61 875.756 3218.61 869.846C3229.61 863.772 3238.96 855.646 3246.68 845.468C3254.07 835.29 3259.65 823.717 3263.42 810.748C3267.36 797.615 3269.42 783.99 3269.58 769.872V761.746C3269.42 747.793 3267.36 734.25 3263.42 721.117C3259.48 707.984 3253.82 696.411 3246.43 686.397C3238.72 676.219 3229.28 668.093 3218.12 662.019C3207.12 655.945 3194.39 652.908 3179.95 652.908C3165.34 652.908 3152.53 655.945 3141.53 662.019C3130.54 668.093 3121.26 676.219 3113.71 686.397C3106.16 696.411 3100.41 707.984 3096.47 721.117C3092.53 734.25 3090.56 747.793 3090.56 761.746V769.872ZM3587.68 763.224C3587.68 745.659 3589.82 728.832 3594.08 712.745C3598.52 696.493 3604.92 682.211 3613.29 669.899C3621.99 657.094 3632.99 646.834 3646.29 639.119C3659.58 631.403 3675.34 627.545 3693.57 627.545C3710.31 627.545 3725.5 631.239 3739.12 638.626C3752.75 645.849 3763.91 655.863 3772.61 668.668V520.677H3801.91V898.902H3774.58L3773.59 864.921C3764.4 877.562 3752.75 887.247 3738.63 893.978C3724.51 900.544 3709.33 903.827 3693.07 903.827C3675.51 903.827 3660.08 899.969 3646.78 892.254C3633.65 884.538 3622.65 874.36 3613.78 861.72C3605.25 849.244 3598.76 834.88 3594.33 818.628C3589.9 802.376 3587.68 785.632 3587.68 768.395V763.224ZM3617.23 768.395C3617.23 781.692 3618.63 794.825 3621.42 807.793C3624.37 820.598 3628.97 832.253 3635.21 842.76C3641.77 853.102 3650.15 861.556 3660.32 868.122C3670.67 874.689 3683.39 877.972 3698.49 877.972C3714.91 877.972 3729.76 873.868 3743.06 865.66C3756.36 857.452 3766.21 846.125 3772.61 831.679V703.88C3766.54 688.777 3757.01 676.629 3744.05 667.436C3731.24 658.079 3716.22 653.401 3698.98 653.401C3683.72 653.401 3670.83 656.684 3660.32 663.25C3649.98 669.817 3641.61 678.353 3635.21 688.859C3628.97 699.366 3624.37 711.103 3621.42 724.072C3618.63 737.04 3617.23 750.091 3617.23 763.224V768.395ZM3884.16 761.746C3884.16 743.689 3886.86 726.534 3892.28 710.282C3897.7 694.03 3905.5 679.831 3915.67 667.683C3925.85 655.371 3938.25 645.603 3952.86 638.38C3967.47 631.157 3984.13 627.545 4002.84 627.545C4021.39 627.545 4037.97 631.157 4052.58 638.38C4067.36 645.603 4079.92 655.289 4090.26 667.436C4100.27 679.748 4107.99 694.03 4113.41 710.282C4118.82 726.534 4121.61 743.689 4121.78 761.746V769.872C4121.61 787.93 4118.82 805.085 4113.41 821.337C4108.15 837.424 4100.44 851.624 4090.26 863.936C4080.08 876.084 4067.69 885.77 4053.08 892.993C4038.47 900.216 4021.89 903.827 4003.34 903.827C3984.62 903.827 3967.88 900.298 3953.1 893.239C3938.33 886.016 3925.93 876.248 3915.92 863.936C3905.58 851.788 3897.7 837.588 3892.28 821.337C3886.86 805.085 3884.16 787.93 3884.16 769.872V761.746ZM3913.46 769.872C3913.46 783.99 3915.43 797.615 3919.37 810.748C3923.31 823.881 3929.05 835.454 3936.61 845.468C3944.16 855.646 3953.51 863.772 3964.68 869.846C3975.84 875.756 3988.73 878.711 4003.34 878.711C4017.78 878.711 4030.5 875.756 4041.5 869.846C4052.5 863.772 4061.86 855.646 4069.58 845.468C4076.96 835.29 4082.54 823.717 4086.32 810.748C4090.26 797.615 4092.31 783.99 4092.48 769.872V761.746C4092.31 747.793 4090.26 734.25 4086.32 721.117C4082.38 707.984 4076.72 696.411 4069.33 686.397C4061.61 676.219 4052.17 668.093 4041.01 662.019C4030.01 655.945 4017.29 652.908 4002.84 652.908C3988.23 652.908 3975.43 655.945 3964.43 662.019C3953.43 668.093 3944.16 676.219 3936.61 686.397C3929.05 696.411 3923.31 707.984 3919.37 721.117C3915.43 734.25 3913.46 747.793 3913.46 761.746V769.872ZM4458.37 540.376L4502.69 693.784L4551.69 540.376H4625.32V898.902H4569.67V777.26L4573.12 617.203L4517.96 788.34H4487.18L4437.19 623.113L4440.39 777.26V898.902H4384.99V540.376H4458.37ZM4881.68 738.107H4733.44V850.147H4906.55V898.902H4674.1V540.376H4905.31V589.378H4733.44V690.337H4881.68V738.107ZM4962.46 540.376H5173.74V589.378H5097.16V850.147H5173.74V898.902H4962.46V850.147H5037.32V589.378H4962.46V540.376ZM5411.87 826.754C5411.87 822.157 5410.8 818.053 5408.67 814.442C5406.7 810.83 5403.33 807.383 5398.57 804.1C5393.48 801.145 5386.84 798.354 5378.63 795.728C5370.42 793.101 5360.16 790.639 5347.85 788.34C5332.42 785.221 5318.3 781.364 5305.49 776.767C5292.85 772.171 5281.94 766.589 5272.74 760.023C5263.72 753.785 5256.66 746.397 5251.57 737.861C5246.48 729.325 5243.93 719.393 5243.93 708.066C5243.93 697.231 5246.48 686.971 5251.57 677.286C5256.82 667.436 5264.29 658.818 5273.98 651.431C5283.5 644.044 5294.99 638.216 5308.45 633.948C5322.07 629.68 5337.18 627.545 5353.76 627.545C5371.49 627.545 5387.41 629.762 5401.53 634.194C5415.65 638.462 5427.63 644.372 5437.48 651.923C5447.16 659.475 5454.63 668.421 5459.89 678.763C5465.14 689.106 5467.77 700.268 5467.77 712.252H5408.92C5408.92 707.327 5407.85 702.649 5405.71 698.216C5403.74 693.62 5400.79 689.516 5396.85 685.904C5392.25 681.636 5386.34 678.271 5379.12 675.809C5371.9 673.182 5363.44 671.869 5353.76 671.869C5344.89 671.869 5337.1 672.854 5330.36 674.824C5323.8 676.629 5318.38 679.174 5314.11 682.457C5309.84 685.412 5306.64 688.941 5304.51 693.045C5302.38 696.985 5301.31 701.171 5301.31 705.604C5301.31 710.2 5302.21 714.386 5304.02 718.162C5305.82 721.773 5309.02 724.975 5313.62 727.765C5317.89 730.72 5323.8 733.429 5331.35 735.891C5339.07 738.354 5348.75 740.57 5360.41 742.54C5376.66 745.495 5391.51 749.106 5404.98 753.374C5418.44 757.642 5429.93 762.896 5439.45 769.134C5448.97 775.7 5456.36 783.416 5461.61 792.28C5466.86 801.145 5469.49 811.651 5469.49 823.799C5469.49 835.619 5466.7 846.453 5461.12 856.303C5455.7 866.152 5447.99 874.607 5437.97 881.666C5427.79 888.724 5415.65 894.224 5401.53 898.164C5387.41 902.103 5371.73 904.073 5354.5 904.073C5335.29 904.073 5318.22 901.529 5303.28 896.44C5288.5 891.351 5276.11 884.62 5266.1 876.248C5255.92 868.04 5248.2 858.601 5242.95 847.931C5237.7 837.26 5235.07 826.426 5235.07 815.427H5292.2C5292.69 823.635 5294.82 830.612 5298.6 836.357C5302.54 841.939 5307.46 846.453 5313.37 849.901C5319.12 853.512 5325.69 856.139 5333.07 857.78C5340.46 859.258 5347.93 859.996 5355.48 859.996C5365.66 859.996 5374.52 858.929 5382.08 856.795C5389.79 854.661 5395.95 851.788 5400.54 848.177C5404.32 845.222 5407.11 842.021 5408.92 838.573C5410.89 834.962 5411.87 831.022 5411.87 826.754Z" fill="black"/>
<path d="M5713.17 18.0401C5712.04 24.2668 5706.95 28.5073 5703.55 34.168C5702.13 36.9983 5699.3 40.1139 5698.17 43.5103C5690.81 54.2655 5681.75 62.7537 5678.07 76.0563C5680.91 80.5848 5673.54 82.2852 5672.41 85.3986C5668.17 89.078 5666.47 94.1709 5662.79 97.8504C5661.94 100.115 5660.53 103.229 5659.11 105.493C5659.11 114.267 5661.66 124.459 5656 130.12C5657.41 130.969 5656.56 132.948 5656.85 134.363C5653.17 136.627 5651.18 141.441 5647.79 144.272C5647.22 148.234 5639.58 150.212 5641.85 155.307C5641.28 155.307 5641 155.874 5641 156.44V157.29C5641 157.29 5638.73 161.251 5636.75 162.949C5636.47 166.346 5632.79 169.462 5635.34 172.575C5631.37 173.707 5633.92 180.501 5628.26 180.784C5627.69 184.463 5624.02 186.157 5624.3 190.119C5622.88 193.233 5619.77 196.631 5617.79 199.178C5615.24 202.292 5613.26 205.974 5611 209.087C5609.02 213.333 5603.64 216.446 5605.05 222.672C5602.22 227.201 5598.26 230.596 5594.58 235.124C5593.73 238.804 5590.33 240.504 5589.2 244.466C5588.07 245.315 5586.37 247.578 5586.94 250.126C5586.66 250.126 5586.37 250.409 5586.37 250.409V251.542H5586.09C5586.09 251.542 5583.82 253.803 5584.11 255.502C5580.43 256.917 5579.58 260.031 5578.45 263.427H5577.88C5577.31 267.673 5572.22 269.934 5571.09 273.896C5567.41 277.575 5563.73 284.369 5560.05 288.614C5559.2 292.011 5555.8 292.578 5556.37 296.54C5549.86 301.069 5550.99 309.563 5545.33 314.091V317.484C5543.35 316.069 5541.65 317.203 5541.09 319.467H5541.65C5541.09 321.732 5538.54 322.012 5537.41 323.993C5534.86 329.654 5530.33 334.467 5526.09 339.845C5523.82 344.373 5522.12 348.057 5517.88 351.17C5515.05 358.246 5509.95 362.772 5506.27 369.565C5506.27 371.546 5504.01 371.826 5504.01 373.524C5500.33 376.921 5499.2 382.304 5494.95 386.266C5485.61 399.286 5477.12 414.851 5467.21 427.588C5466.93 432.399 5460.99 434.378 5460.7 438.906C5453.35 449.096 5445.14 460.704 5439.19 471.459C5432.68 482.498 5425.89 493.248 5416.84 502.022C5412.02 508.249 5403.82 516.461 5394.19 513.631C5393.06 511.65 5391.08 513.628 5390.51 511.081V511.648C5389.1 508.534 5384.85 509.096 5383.15 507.115C5378.62 504.284 5373.81 500.609 5369.85 497.213C5369 492.684 5362.78 489.855 5363.34 484.194C5357.96 478.817 5355.13 471.736 5352.87 465.227C5350.32 462.396 5350.61 458.154 5349.47 454.475C5347.49 451.644 5348.34 448.246 5346.08 445.699C5346.93 442.869 5343.81 442.02 5344.09 439.473C5339.85 431.831 5339.57 423.621 5335.32 415.979C5334.19 406.356 5329.66 398.15 5327.68 389.376C5325.42 385.13 5324.85 379.186 5322.02 374.941L5322.87 374.374C5320.32 370.978 5320.89 365.318 5319.47 361.639C5316.92 359.092 5319.47 355.41 5317.21 352.58C5315.23 346.636 5315.23 339.845 5313.53 333.336C5310.7 323.713 5310.42 312.107 5306.45 304.182C5307.87 299.371 5303.34 297.959 5304.47 293.431C5302.49 282.958 5301.64 271.633 5301.07 260.878C5303.62 257.481 5303.91 253.523 5307.02 250.692C5311.83 249.56 5315.23 246.445 5320.32 249.276C5326.83 247.861 5330.51 251.823 5334.47 256.068C5340.13 265.974 5347.21 275.316 5350.89 285.788C5353.15 286.92 5352.3 290.316 5354.57 292.014C5354.85 293.995 5355.14 295.974 5356.83 296.823C5355.98 301.352 5361.36 302.487 5361.08 306.732C5363.06 309.563 5363.91 312.395 5365.61 315.508C5365.32 315.508 5365.04 315.791 5364.76 315.791C5365.89 318.905 5368.44 321.447 5368.44 324.843C5370.98 326.258 5369.85 329.087 5372.11 330.219C5374.38 336.163 5374.1 340.693 5378.34 345.787C5379.76 353.429 5383.15 360.506 5386.55 367.582C5387.96 368.148 5388.53 366.448 5389.66 366.165V364.755V365.322C5393.91 361.36 5399 356.542 5400.98 352.297C5402.4 351.448 5404.38 350.319 5404.95 348.904C5404.38 346.357 5408.06 345.509 5408.91 343.528C5410.04 339.565 5415.14 340.131 5415.42 336.169C5433.53 314.658 5450.52 293.43 5469.76 271.636C5470.33 270.221 5471.74 269.086 5472.88 268.237C5477.12 262.576 5480.8 258.612 5483.91 252.669H5484.2C5498.92 233.422 5513.92 217.575 5529.77 198.895C5535.99 193.517 5539.96 184.745 5547.6 179.084C5550.14 175.688 5553.54 171.155 5556.37 168.042C5572.5 151.343 5588.07 133.8 5604.77 116.818C5605.05 114.837 5608.45 114.267 5609.58 113.135C5622.32 99.2666 5637.88 83.6987 5650.9 69.5471C5657.98 63.3203 5664.2 55.9626 5672.41 49.4528C5672.41 48.3207 5674.68 48.6015 5674.96 47.1864C5682.6 37.8463 5693.92 30.2063 5702.7 20.8662C5705.53 18.602 5708.08 17.1882 5710.06 15.207C5711.19 14.3579 5710.62 16.341 5711.47 17.1901L5713.17 18.0401Z" fill="#231F20" stroke="#231F20" stroke-width="28.3033" stroke-miterlimit="2" stroke-linecap="square"/>
</svg>
