<?xml version="1.0" encoding="UTF-8"?>
<svg id="Layer_1" xmlns="http://www.w3.org/2000/svg" version="1.1" viewBox="0 0 1366 768">
  <!-- Generator: Adobe Illustrator 29.5.1, SVG Export Plug-In . SVG Version: 2.1.0 Build 141)  -->
  <defs>
    <style>
      .st0 {
        fill: #fff;
        fill-rule: evenodd;
      }

      .st1 {
        opacity: .2;
      }
    </style>
  </defs>
  <g class="st1">
    <path class="st0" d="M685.31,277.13c-57.52,0-104.16,46.63-104.16,104.16,0,19.68,5.46,38.08,14.95,53.78l-18.8,55.88,57.67-18.46c14.92,8.25,32.08,12.96,50.34,12.96,57.53,0,104.16-46.64,104.16-104.16s-46.63-104.16-104.16-104.16ZM685.31,468c-17.61,0-34.01-5.28-47.7-14.34l-33.32,10.67,10.83-32.2c-10.38-14.3-16.51-31.86-16.51-50.84,0-47.82,38.9-86.72,86.71-86.72s86.71,38.9,86.71,86.72-38.9,86.71-86.71,86.71ZM734.15,404.96c-2.61-1.43-15.44-8.35-17.84-9.33-2.4-.98-4.16-1.48-6.03,1.11-1.87,2.59-7.19,8.39-8.81,10.1-1.62,1.72-3.18,1.88-5.79.44-2.6-1.43-11.07-4.56-20.89-13.99-7.64-7.34-12.65-16.25-14.1-18.96-1.45-2.72-.01-4.11,1.37-5.38,1.24-1.15,2.78-3.01,4.16-4.51,1.38-1.5,1.87-2.59,2.82-4.33.95-1.74.57-3.31-.05-4.67-.62-1.35-5.44-14.64-7.46-20.04-2.02-5.4-4.26-4.6-5.81-4.66-1.55-.05-3.32-.35-5.09-.41-1.77-.07-4.68.49-7.21,3.06-2.54,2.57-9.65,8.74-10.14,21.83-.49,13.08,8.56,26.08,9.82,27.9,1.26,1.83,17.29,30.18,43.91,41.85,26.63,11.66,26.77,8.1,31.66,7.84,4.89-.26,15.97-5.85,18.42-11.97,2.45-6.12,2.65-11.45,2.02-12.58-.62-1.13-2.37-1.87-4.98-3.29Z"/>
  </g>
</svg>