<svg width="9971" height="1024" viewBox="0 0 9971 1024" fill="none" xmlns="http://www.w3.org/2000/svg">
<path d="M78.1061 1020.89C52.9885 1020.89 33.7183 1013.67 20.2994 999.214C6.88036 984.763 0 965.151 0 940.033V130.421C0 104.615 7.22578 84.6589 21.677 70.5517C36.1282 56.4446 55.7396 49.5625 80.8572 49.5625C103.222 49.5625 121.116 53.6923 134.191 62.2942C147.266 70.8961 159.308 85.347 169.974 105.992L502.696 721.544H459.342L792.065 105.992C802.732 85.347 814.429 70.8961 827.16 62.2942C839.546 53.6923 857.095 49.5625 879.46 49.5625C904.578 49.5625 923.846 56.4446 937.609 70.5517C951.028 84.6589 957.566 104.271 957.566 130.421V940.033C957.566 965.151 951.029 984.763 938.298 999.214C925.223 1013.67 905.61 1020.89 879.46 1020.89C853.31 1020.89 835.074 1013.67 821.655 999.214C808.236 984.763 801.354 965.151 801.354 940.033V316.566H830.946L548.114 832.337C539.168 847.476 529.534 858.831 519.899 866.057C509.921 873.283 496.502 877.068 479.299 877.068C462.095 877.068 448.331 873.282 437.665 865.713C426.998 858.143 417.366 847.133 409.452 832.681L124.211 315.534H156.554V940.378C156.554 965.495 150.017 985.108 136.942 999.559C123.867 1014.01 104.254 1021.24 78.4484 1021.24L78.1061 1020.89Z" fill="#231F20"/>
<path d="M1284.77 1010.23C1255.18 1010.23 1232.47 1002.31 1216.65 986.485C1200.82 970.658 1193.25 948.293 1193.25 918.702V152.443C1193.25 122.853 1201.16 100.144 1216.65 84.6603C1232.13 69.1769 1255.18 60.9189 1284.77 60.9189H1765.45C1787.81 60.9189 1805.02 66.7686 1817.06 78.4672C1829.1 90.1658 1835.29 106.681 1835.29 128.358C1835.29 150.035 1829.1 168.271 1817.06 179.969C1805.02 192.012 1787.47 198.205 1765.45 198.205H1358.75V459.359H1735.86C1759.25 459.359 1776.8 465.209 1788.5 476.908C1800.2 488.606 1806.05 505.81 1806.05 528.175C1806.05 550.54 1800.2 567.744 1788.5 579.443C1776.8 591.141 1759.25 596.99 1735.86 596.99H1358.75V872.94H1765.45C1787.81 872.94 1805.02 878.789 1817.06 890.487C1829.1 902.186 1835.29 919.391 1835.29 941.756C1835.29 964.121 1829.1 981.324 1817.06 993.023C1805.02 1004.72 1787.47 1010.57 1765.45 1010.57H1284.77V1010.23Z" fill="#231F20"/>
<path d="M2137.07 1020.87C2109.2 1020.87 2087.87 1012.96 2073.08 997.478C2058.28 981.65 2051.05 959.973 2051.05 932.103V139.006C2051.05 110.103 2058.28 88.0829 2073.08 72.9436C2087.87 57.8042 2109.2 50.2344 2137.07 50.2344C2164.94 50.2344 2186.28 57.8042 2201.07 72.9436C2215.87 88.0829 2223.44 110.103 2223.44 139.006V932.103C2223.44 959.973 2216.21 981.65 2201.76 997.478C2187.31 1012.96 2165.63 1020.87 2137.07 1020.87Z" fill="#231F20"/>
<path d="M2527.92 1020.88C2500.05 1020.88 2478.72 1013.66 2463.93 998.863C2449.13 984.067 2441.9 962.734 2441.9 934.864V425.631C2441.9 397.76 2449.13 376.772 2463.58 362.321C2478.03 347.869 2497.99 340.644 2524.14 340.644C2550.29 340.644 2570.59 347.869 2584.7 362.321C2599.15 376.772 2606.37 397.76 2606.37 425.631V510.618H2592.95C2605.69 456.598 2630.12 415.653 2666.93 388.126C2703.75 360.6 2752.61 343.74 2813.85 338.235C2832.43 336.514 2847.57 341.332 2858.93 352.342C2870.28 363.353 2876.82 380.901 2878.54 403.954C2880.26 426.319 2875.1 444.555 2863.06 458.662C2851.01 472.769 2832.78 480.683 2808.35 483.78L2778.76 486.532C2724.05 492.037 2682.76 508.553 2654.89 537.111C2627.02 565.67 2613.26 605.238 2613.26 656.161V934.864C2613.26 962.734 2606.03 984.067 2591.58 998.863C2577.13 1013.66 2556.14 1020.88 2528.27 1020.88H2527.92Z" fill="#231F20"/>
<path d="M3321.03 1023.66C3246.71 1023.66 3182.37 1009.55 3128.69 982.022C3074.67 954.152 3033.04 914.583 3004.14 863.66C2974.89 812.393 2960.44 751.835 2960.44 681.988C2960.44 612.14 2974.55 553.991 3002.76 502.724C3030.97 451.456 3069.85 411.543 3119.75 382.297C3169.64 353.05 3226.41 338.6 3290.06 338.6C3336.51 338.6 3378.83 346.169 3415.99 361.309C3453.16 376.448 3485.16 398.468 3511.65 427.371C3538.14 455.929 3558.44 490.681 3572.21 531.626C3585.97 572.571 3593.2 618.678 3593.2 669.601C3593.2 685.773 3587.69 698.16 3576.34 706.418C3565.33 715.02 3549.15 719.148 3528.51 719.148H3096V622.118H3474.49L3452.81 642.419C3452.81 601.13 3446.62 566.722 3434.58 538.851C3422.53 510.981 3404.98 489.649 3382.28 474.854C3359.22 460.058 3330.67 452.832 3296.95 452.832C3259.1 452.832 3227.1 461.779 3200.6 478.982C3174.11 496.53 3153.81 521.304 3140.05 552.959C3125.94 584.614 3119.06 622.806 3119.06 666.848V676.139C3119.06 749.771 3136.26 804.823 3171.01 841.295C3205.42 877.767 3256.34 895.66 3323.78 895.66C3347.18 895.66 3373.33 892.907 3402.58 887.058C3431.82 881.209 3459.35 871.23 3485.15 856.779C3504.08 845.769 3520.59 841.296 3535.05 842.672C3549.5 844.048 3560.85 849.209 3569.11 858.155C3577.71 867.101 3582.87 878.112 3584.59 891.187C3586.31 904.262 3583.9 917.336 3577.37 930.755C3570.49 944.174 3559.13 955.873 3542.96 965.851C3511.3 985.807 3475.52 1000.26 3434.58 1009.89C3393.98 1019.18 3355.78 1024 3320.69 1024L3321.03 1023.66Z" fill="#231F20"/>
<path d="M4069.39 592.509L4275.15 52.6533H4378.37V1010.22H4301.3V585.972L4306.46 164.478L4094.17 722.226H4042.9L3846.77 174.456L3851.94 585.972V1010.22H3774.86V52.6533H3876.02L4068.7 592.509H4069.39Z" fill="#231F20"/>
<path d="M4711.09 551.22V940.371H5198.3V1010.22H4632.64V52.6533H5194.86V122.501H4710.74V482.06H5133.61V551.22H4710.74H4711.09Z" fill="#231F20"/>
<path d="M6017.23 52.6533V123.533H5777.07V939.683H6017.23V1009.87H5462.92V939.683H5695.86V123.533H5462.92V52.6533H6017.23Z" fill="#231F20"/>
<path d="M6773.84 289.04C6793.79 291.448 6810.65 294.888 6824.07 299.361L6813.41 375.746C6795.51 371.962 6777.28 368.521 6758.7 366.457C6740.12 364.048 6721.54 363.016 6702.27 363.016C6668.89 363.016 6637.93 366.8 6608.68 374.37C6579.43 381.94 6553.28 393.983 6530.23 410.154C6507.86 425.982 6488.6 445.594 6472.08 469.68C6455.56 493.421 6443.18 521.635 6434.23 554.322L6435.61 1009.88H6354.06V298.329H6429.07L6433.54 407.402L6434.23 439.056C6461.76 390.542 6499.61 352.349 6547.09 325.167C6594.92 297.985 6650.66 284.567 6715 284.911C6734.27 284.911 6753.88 285.942 6773.84 288.695V289.04Z" fill="#231F20"/>
<path d="M7194.32 995.759C7153.72 977.179 7118.62 952.406 7089.72 920.751C7060.47 888.752 7037.77 851.592 7021.25 809.27C7005.08 766.949 6996.82 721.875 6996.82 674.049V645.834C6996.82 594.911 7005.08 547.428 7021.59 503.73C7038.11 459.688 7060.82 421.84 7089.72 389.153C7118.28 356.466 7151.66 331.348 7189.85 312.768C7228.39 294.188 7269.67 285.241 7314.4 285.241C7361.54 285.241 7403.17 293.5 7439.65 310.704C7476.46 327.563 7507.09 350.616 7532.2 380.207C7556.98 409.797 7575.56 444.549 7588.29 484.462C7601.36 524.031 7607.56 566.353 7607.56 611.771V659.941H7074.93V681.618C7076.65 719.123 7083.87 754.218 7096.26 786.906C7108.65 819.249 7125.85 847.807 7147.87 872.236C7170.24 898.042 7197.07 918.342 7228.04 933.482C7259.35 948.277 7293.76 955.847 7331.95 956.535C7375.99 956.535 7415.56 948.277 7451 931.417C7486.44 914.558 7517.07 890.816 7542.53 859.161L7592.42 897.354C7565.23 934.858 7529.45 965.481 7484.72 988.879C7439.99 1011.93 7388.04 1023.63 7328.86 1023.63C7280 1023.63 7234.92 1014.34 7193.98 996.104L7194.32 995.759ZM7226.32 371.26C7199.83 383.303 7176.08 399.819 7156.13 420.808C7135.48 442.14 7118.62 467.602 7105.55 496.848C7092.47 526.095 7083.53 557.75 7079.4 591.814H7529.79V584.588C7529.79 556.03 7524.64 527.471 7514.31 499.257C7503.99 470.699 7489.88 445.581 7471.99 424.249C7453.41 402.572 7431.39 385.368 7404.9 372.637C7378.75 359.562 7348.81 353.369 7314.75 353.369C7282.75 353.369 7253.5 359.218 7226.66 371.605L7226.32 371.26Z" fill="#231F20"/>
<path d="M8129.5 0V939.673H8370.7V1009.86H7797.81V939.673H8051.05V70.5353H7797.81V0.343363H8129.15L8129.5 0Z" fill="#231F20"/>
<path d="M8756.74 995.759C8716.14 977.179 8681.05 952.406 8652.15 920.751C8622.56 888.752 8599.84 851.592 8583.67 809.27C8567.5 766.949 8559.25 721.875 8559.25 674.049V645.834C8559.25 594.911 8567.5 547.428 8584.02 503.73C8600.53 459.688 8623.24 421.84 8652.15 389.153C8680.7 356.466 8714.08 331.348 8752.27 312.768C8790.46 294.188 8832.1 285.241 8876.83 285.241C8921.56 285.241 8965.6 293.5 9002.07 310.704C9038.54 327.563 9069.51 350.616 9094.63 380.207C9119.06 409.797 9137.98 444.549 9150.71 484.462C9163.44 524.031 9169.98 566.353 9169.98 611.771V659.941H8637.35V681.618C8639.07 719.123 8646.3 754.218 8658.68 786.906C8671.07 819.249 8688.27 847.807 8710.3 872.236C8732.66 898.042 8759.15 918.342 8790.46 933.482C8821.43 948.277 8856.18 955.847 8894.38 956.535C8938.07 956.535 8977.99 948.277 9013.43 931.417C9048.87 914.558 9079.49 890.816 9104.95 859.161L9154.84 897.354C9127.66 934.858 9091.88 965.481 9047.15 988.879C9002.42 1011.93 8950.46 1023.63 8891.28 1023.63C8842.07 1023.63 8797.35 1014.34 8756.4 996.104L8756.74 995.759ZM8789.09 371.26C8762.25 383.303 8738.85 399.819 8718.9 420.808C8698.25 442.14 8681.39 467.602 8668.32 496.848C8655.24 526.095 8646.3 557.75 8642.17 591.814H9092.56V584.588C9092.56 556.03 9087.4 527.471 9077.08 499.257C9066.76 470.699 9052.65 445.581 9034.76 424.249C9016.18 402.572 8994.16 385.368 8967.66 372.637C8941.51 359.562 8911.24 353.369 8877.52 353.369C8843.8 353.369 8815.93 359.218 8789.43 371.605L8789.09 371.26Z" fill="#231F20"/>
<path d="M9877.76 774.518C9868.12 759.035 9854.7 745.616 9837.5 734.605C9818.57 722.219 9795.86 711.897 9769.03 702.951C9742.19 694.005 9714.32 686.779 9685.42 680.586C9648.94 673.016 9615.57 664.414 9585.63 654.78C9555.35 645.146 9527.14 632.758 9500.65 617.275C9475.87 602.824 9456.26 584.244 9441.12 561.879C9425.98 539.17 9418.41 511.644 9418.41 479.301C9418.41 446.958 9425.98 421.152 9441.12 397.066C9456.26 372.981 9476.56 352.337 9502.02 335.133C9526.11 319.305 9554.32 306.918 9586.67 298.316C9619.01 289.37 9652.04 285.241 9686.45 285.241C9724.99 285.241 9761.11 289.714 9794.49 299.348C9827.86 308.639 9857.46 322.402 9882.23 340.294C9907.35 358.874 9927.3 380.895 9942.44 407.389C9957.58 433.883 9965.84 463.473 9967.21 497.537H9887.73C9887.39 474.828 9881.19 454.183 9869.5 436.291C9857.8 418.055 9843 402.916 9824.42 390.873C9805.5 378.486 9784.17 369.196 9760.42 362.658C9736.34 356.121 9711.91 352.681 9686.45 352.681C9660.99 352.681 9638.97 355.089 9616.26 360.25C9593.55 365.067 9573.59 372.981 9556.04 383.648C9538.49 393.626 9524.04 406.357 9513.38 422.184C9502.37 437.668 9496.86 455.559 9496.86 476.548C9496.86 497.536 9501.68 515.084 9511.31 530.224C9520.95 545.363 9535.06 557.75 9553.29 568.072C9571.87 579.083 9593.89 588.029 9619.35 595.255C9644.82 602.48 9671.65 609.018 9699.87 614.523C9735.65 622.437 9770.06 631.726 9803.09 642.049C9836.12 652.371 9865.02 665.79 9889.8 682.306C9914.23 698.478 9933.84 718.09 9948.64 741.143C9963.43 764.196 9970.65 791.723 9970.65 824.41C9970.65 855.033 9963.43 882.215 9949.67 906.3C9935.56 930.042 9917.32 950.342 9894.96 966.514C9867.78 985.782 9836.12 999.889 9800.34 1009.18C9764.21 1018.47 9727.74 1022.94 9690.58 1022.94C9649.98 1022.94 9612.13 1017.78 9576 1007.46C9539.87 997.137 9508.9 983.029 9482.75 965.137C9455.57 946.557 9434.24 924.536 9418.76 898.042C9403.27 871.892 9394.67 842.301 9393.29 809.958H9472.09C9474.84 837.828 9483.1 861.226 9497.55 880.15C9511.66 898.73 9529.2 913.526 9549.85 925.224C9570.49 936.579 9593.2 944.493 9617.98 949.31C9642.75 953.783 9666.84 956.191 9690.58 956.191C9721.54 956.191 9751.14 952.406 9778.66 944.837C9806.19 937.267 9830.27 925.568 9850.23 910.429C9863.3 899.763 9873.63 887.719 9880.85 874.3C9888.08 860.537 9891.86 845.399 9891.86 828.883C9891.86 808.238 9887.05 790.002 9877.41 774.518H9877.76Z" fill="#231F20"/>
</svg>
